0
SECTION
2
HEADER
9
$INSUNITS
70
4
9
$ACADVER
1
AC1014
9
$HANDSEED
5
FFFF
0
ENDSEC
0
SECTION
2
TABLES
0
TABLE
2
VPORT
5
8
100
AcDbSymbolTable
0
ENDTAB
0
TABLE
2
LTYPE
5
5
100
AcDbSymbolTable
0
LTYPE
5
14
100
AcDbSymbolTableRecord
100
AcDbLinetypeTableRecord
2
BYBLOCK
70
0
0
LTYPE
5
15
100
AcDbSymbolTableRecord
100
AcDbLinetypeTableRecord
2
BYLAYER
70
0
0
ENDTAB
0
TABLE
2
LAYER
5
2
100
AcDbSymbolTable
70
2
0
LAYER
5
50
100
AcDbSymbolTableRecord
100
AcDbLayerTableRecord
2
0
70
0
6
CONTINUOUS
0
ENDTAB
0
TABLE
2
STYLE
5
3
100
AcDbSymbolTable
70
1
0
STYLE
5
11
100
AcDbSymbolTableRecord
100
AcDbTextStyleTableRecord
2
STANDARD
70
0
0
ENDTAB
0
TABLE
2
VIEW
5
6
100
AcDbSymbolTable
70
0
0
ENDTAB
0
TABLE
2
UCS
5
7
100
AcDbSymbolTable
70
0
0
ENDTAB
0
TABLE
2
APPID
5
9
100
AcDbSymbolTable
70
2
0
APPID
5
12
100
AcDbSymbolTableRecord
100
AcDbRegAppTableRecord
2
ACAD
70
0
0
ENDTAB
0
TABLE
2
DIMSTYLE
5
A
100
AcDbSymbolTable
70
1
0
ENDTAB
0
TABLE
2
BLOCK_RECORD
5
1
100
AcDbSymbolTable
70
1
0
BLOCK_RECORD
5
1F
100
AcDbSymbolTableRecord
100
AcDbBlockTableRecord
2
*MODEL_SPACE
0
BLOCK_RECORD
5
1B
100
AcDbSymbolTableRecord
100
AcDbBlockTableRecord
2
*PAPER_SPACE
0
ENDTAB
0
ENDSEC
0
SECTION
2
BLOCKS
0
BLOCK
5
20
100
AcDbEntity
100
AcDbBlockBegin
2
*MODEL_SPACE
0
ENDBLK
5
21
100
AcDbEntity
100
AcDbBlockEnd
0
BLOCK
5
1C
100
AcDbEntity
100
AcDbBlockBegin
2
*PAPER_SPACE
0
ENDBLK
5
1D
100
AcDbEntity
100
AcDbBlockEnd
0
ENDSEC
0
SECTION
2
ENTITIES
0
LWPOLYLINE
5
100
100
AcDbEntity
8
0
100
AcDbPolyline
90
8
70
1
43
0.0
10
168.40000000000003
20
51.336600645813093
10
168.40000000000003
20
38.386600645813076
42
-0.41421356237309254
10
167.87500000000006
20
37.861600645813084
10
154.92500000000001
20
37.861600645813084
42
-0.41421356237309503
10
154.40000000000001
20
38.386600645813083
10
154.40000000000003
20
51.3366006458131
42
-0.41421356237309503
10
154.92500000000004
20
51.861600645813098
10
167.87500000000006
20
51.861600645813077
42
-0.41421356237309503
0
LWPOLYLINE
5
101
100
AcDbEntity
8
0
100
AcDbPolyline
90
8
70
1
43
0.0
10
149.34999999999999
20
51.336600645813093
10
149.34999999999999
20
38.38660064581309
42
-0.41421356237309748
10
148.82499999999999
20
37.861600645813084
10
135.875
20
37.861600645813084
42
-0.41421356237309503
10
135.34999999999999
20
38.38660064581309
10
135.35000000000002
20
51.3366006458131
42
-0.41421356237309503
10
135.87500000000003
20
51.861600645813098
10
148.82499999999999
20
51.861600645813091
42
-0.41421356237309503
0
LWPOLYLINE
5
102
100
AcDbEntity
8
0
100
AcDbPolyline
90
8
70
1
43
0.0
10
186.92500000000007
20
18.81160064581309
10
173.97500000000002
20
18.811600645813108
42
-0.41421356237309503
10
173.45000000000002
20
19.336600645813093
10
173.45000000000005
20
32.286600645813088
42
-0.41421356237309503
10
173.97500000000005
20
32.811600645813087
10
186.92500000000007
20
32.811600645813066
42
-0.41421356237309503
10
187.45000000000005
20
32.286600645813081
10
187.45000000000005
20
19.336600645813085
42
-0.41421356237309132
0
LWPOLYLINE
5
103
100
AcDbEntity
8
0
100
AcDbPolyline
90
8
70
1
43
0.0
10
130.30000000000001
20
51.336600645813093
10
130.29999999999998
20
38.38660064581309
42
-0.41421356237309748
10
129.77499999999998
20
37.861600645813084
10
116.82500000000002
20
37.861600645813084
42
-0.41421356237309503
10
116.30000000000001
20
38.38660064581309
10
116.30000000000001
20
51.3366006458131
42
-0.41421356237309503
10
116.82500000000002
20
51.861600645813098
10
129.77500000000001
20
51.861600645813091
42
-0.41421356237309503
0
LWPOLYLINE
5
104
100
AcDbEntity
8
0
100
AcDbPolyline
90
8
70
1
43
0.0
10
154.92500000000004
20
32.811600645813087
10
167.87500000000006
20
32.811600645813073
42
-0.41421356237309503
10
168.40000000000003
20
32.286600645813088
10
168.40000000000003
20
19.336600645813093
42
-0.41421356237309503
10
167.87500000000006
20
18.81160064581309
10
154.92500000000001
20
18.81160064581309
42
-0.41421356237309503
10
154.40000000000001
20
19.336600645813093
10
154.40000000000003
20
32.286600645813095
42
-0.41421356237309254
0
LWPOLYLINE
5
105
100
AcDbEntity
8
0
100
AcDbPolyline
90
8
70
1
43
0.0
10
20.762499999999999
20
13.236600645813093
10
20.762499999999999
20
0.28660064581309103
42
-0.41421356237309515
10
20.237499999999997
20
-0.23839935418690927
10
7.2874999999999979
20
-0.23839935418690769
42
-0.41421356237309515
10
6.7624999999999975
20
0.28660064581309241
10
6.7624999999999975
20
13.236600645813098
42
-0.41421356237309254
10
7.2874999999999979
20
13.761600645813095
10
20.237499999999997
20
13.761600645813095
42
-0.41421356237309503
0
LWPOLYLINE
5
106
100
AcDbEntity
8
0
100
AcDbPolyline
90
8
70
1
43
0.0
10
92.200000000000003
20
51.336600645813093
10
92.200000000000003
20
38.38660064581309
42
-0.41421356237309748
10
91.675000000000011
20
37.861600645813084
10
78.725000000000009
20
37.861600645813091
42
-0.41421356237309503
10
78.200000000000017
20
38.38660064581309
10
78.200000000000017
20
51.3366006458131
42
-0.41421356237309503
10
78.725000000000009
20
51.861600645813098
10
91.675000000000011
20
51.861600645813091
42
-0.41421356237309503
0
LWPOLYLINE
5
107
100
AcDbEntity
8
0
100
AcDbPolyline
90
8
70
1
43
0.0
10
101.19999999999997
20
-19.2883993541869
10
88.250000000000014
20
-19.288399354186897
42
-0.41421356237309503
10
87.725000000000009
20
-18.763399354186895
10
87.725000000000023
20
-5.81339935418689
42
-0.4142135623730932
10
88.250000000000028
20
-5.2883993541868932
10
101.19999999999999
20
-5.2883993541868914
42
-0.41421356237309503
10
101.72499999999999
20
-5.8133993541868936
10
101.72499999999998
20
-18.763399354186902
42
-0.41421356237309503
0
LWPOLYLINE
5
108
100
AcDbEntity
8
0
100
AcDbPolyline
90
8
70
1
43
0.0
10
35.050000000000004
20
51.3366006458131
10
35.050000000000004
20
38.386600645813076
42
-0.41421356237309254
10
34.524999999999999
20
37.861600645813084
10
21.575000000000003
20
37.861600645813084
42
-0.41421356237309503
10
21.050000000000001
20
38.386600645813083
10
21.050000000000001
20
51.3366006458131
42
-0.41421356237309503
10
21.575000000000003
20
51.861600645813098
10
34.524999999999999
20
51.861600645813098
42
-0.41421356237309503
0
LWPOLYLINE
5
109
100
AcDbEntity
8
0
100
AcDbPolyline
90
8
70
1
43
0.0
10
111.25000000000001
20
51.336600645813093
10
111.25000000000001
20
38.38660064581309
42
-0.41421356237309748
10
110.72500000000002
20
37.861600645813084
10
97.77500000000002
20
37.861600645813084
42
-0.41421356237309503
10
97.250000000000014
20
38.386600645813083
10
97.250000000000028
20
51.3366006458131
42
-0.41421356237309503
10
97.775000000000034
20
51.861600645813098
10
110.72500000000002
20
51.861600645813091
42
-0.41421356237309503
0
LWPOLYLINE
5
110
100
AcDbEntity
8
0
100
AcDbPolyline
90
8
70
1
43
0.0
10
187.45000000000005
20
51.336600645813093
10
187.45000000000005
20
38.386600645813076
42
-0.41421356237309254
10
186.92500000000007
20
37.861600645813084
10
173.97500000000002
20
37.861600645813105
42
-0.41421356237309503
10
173.45000000000002
20
38.38660064581309
10
173.45000000000005
20
51.3366006458131
42
-0.41421356237309503
10
173.97500000000005
20
51.861600645813098
10
186.92500000000007
20
51.861600645813077
42
-0.41421356237309503
0
LWPOLYLINE
5
111
100
AcDbEntity
8
0
100
AcDbPolyline
90
8
70
1
43
0.0
10
15.475000000000003
20
37.861600645813084
10
2.5249999999999972
20
37.861600645813084
42
-0.41421356237309537
10
1.9999999999999964
20
38.38660064581309
10
1.9999999999999962
20
51.3366006458131
42
-0.41421356237309503
10
2.5249999999999986
20
51.861600645813098
10
15.475000000000003
20
51.861600645813098
42
-0.41421356237309503
10
16.000000000000004
20
51.3366006458131
10
16
20
38.38660064581309
42
-0.41421356237309748
0
LWPOLYLINE
5
112
100
AcDbEntity
8
0
100
AcDbPolyline
90
8
70
1
43
0.0
10
54.100000000000001
20
51.3366006458131
10
54.100000000000001
20
38.386600645813076
42
-0.41421356237309254
10
53.575000000000003
20
37.861600645813084
10
40.625000000000007
20
37.861600645813091
42
-0.41421356237309503
10
40.100000000000009
20
38.38660064581309
10
40.100000000000009
20
51.3366006458131
42
-0.41421356237309503
10
40.625000000000007
20
51.861600645813098
10
53.575000000000003
20
51.861600645813098
42
-0.41421356237309503
0
LWPOLYLINE
5
113
100
AcDbEntity
8
0
100
AcDbPolyline
90
8
70
1
43
0.0
10
73.150000000000006
20
51.336600645813107
10
73.150000000000006
20
38.38660064581309
42
-0.41421356237309748
10
72.625000000000014
20
37.861600645813084
10
59.675000000000011
20
37.861600645813091
42
-0.41421356237309503
10
59.150000000000006
20
38.38660064581309
10
59.150000000000006
20
51.3366006458131
42
-0.41421356237309503
10
59.675000000000011
20
51.861600645813098
10
72.625000000000014
20
51.861600645813112
42
-0.41421356237309503
0
LWPOLYLINE
5
114
100
AcDbEntity
8
0
100
AcDbPolyline
90
8
70
1
43
0.0
10
44.050000000000004
20
-0.23839935418690755
10
31.100000000000001
20
-0.23839935418690983
42
-0.41421356237309515
10
30.575000000000003
20
0.28660064581309252
10
30.575000000000003
20
13.236600645813096
42
-0.41421356237309254
10
31.100000000000001
20
13.761600645813093
10
44.050000000000004
20
13.761600645813095
42
-0.41421356237309503
10
44.575000000000003
20
13.236600645813093
10
44.575000000000003
20
0.28660064581308881
42
-0.41421356237309365
0
LWPOLYLINE
5
115
100
AcDbEntity
8
0
100
AcDbPolyline
90
8
70
1
43
0.0
10
97.775000000000034
20
32.811600645813087
10
110.72500000000002
20
32.811600645813094
42
-0.41421356237309503
10
111.25000000000001
20
32.286600645813095
10
111.25000000000001
20
19.336600645813093
42
-0.41421356237309503
10
110.72500000000002
20
18.81160064581309
10
97.77500000000002
20
18.81160064581309
42
-0.41421356237309503
10
97.250000000000014
20
19.336600645813093
10
97.250000000000057
20
32.286600645813095
42
-0.41421356237309254
0
LWPOLYLINE
5
116
100
AcDbEntity
8
0
100
AcDbPolyline
90
8
70
1
43
0.0
10
63.100000000000009
20
-0.23839935418690758
10
50.150000000000006
20
-0.23839935418690991
42
-0.41421356237309515
10
49.625
20
0.28660064581309241
10
49.625
20
13.236600645813096
42
-0.41421356237309381
10
50.150000000000006
20
13.761600645813095
10
63.100000000000009
20
13.761600645813095
42
-0.41421356237309503
10
63.625000000000007
20
13.236600645813093
10
63.625000000000007
20
0.28660064581309108
42
-0.41421356237309481
0
LWPOLYLINE
5
117
100
AcDbEntity
8
0
100
AcDbPolyline
90
8
70
1
43
0.0
10
78.725000000000009
20
32.811600645813087
10
91.675000000000011
20
32.811600645813087
42
-0.41421356237309503
10
92.200000000000003
20
32.286600645813088
10
92.200000000000003
20
19.336600645813085
42
-0.41421356237309254
10
91.675000000000011
20
18.81160064581309
10
78.725000000000009
20
18.81160064581309
42
-0.41421356237309503
10
78.200000000000017
20
19.336600645813093
10
78.200000000000017
20
32.286600645813095
42
-0.41421356237309503
0
LWPOLYLINE
5
118
100
AcDbEntity
8
0
100
AcDbPolyline
90
8
70
1
43
0.0
10
82.150000000000006
20
-0.23839935418690761
10
69.200000000000003
20
-0.23839935418691
42
-0.41421356237309515
10
68.675000000000011
20
0.2866006458130923
10
68.675000000000011
20
13.236600645813098
42
-0.41421356237309254
10
69.200000000000003
20
13.761600645813095
10
82.15000000000002
20
13.761600645813093
42
-0.41421356237309503
10
82.675000000000011
20
13.236600645813091
10
82.674999999999997
20
0.28660064581309103
42
-0.4142135623730947
0
LWPOLYLINE
5
119
100
AcDbEntity
8
0
100
AcDbPolyline
90
8
70
1
43
0.0
10
101.20000000000002
20
-0.23839935418690755
10
88.250000000000014
20
-0.23839935418690991
42
-0.41421356237309531
10
87.725000000000009
20
0.28660064581309258
10
87.725000000000023
20
13.236600645813095
42
-0.41421356237309381
10
88.250000000000028
20
13.761600645813093
10
101.20000000000002
20
13.761600645813095
42
-0.41421356237309503
10
101.72500000000001
20
13.236600645813093
10
101.72500000000001
20
0.28660064581308881
42
-0.41421356237309392
0
LWPOLYLINE
5
120
100
AcDbEntity
8
0
100
AcDbPolyline
90
8
70
1
43
0.0
10
120.24999999999999
20
-0.23839935418690758
10
107.30000000000003
20
-0.23839935418691
42
-0.41421356237309515
10
106.77500000000002
20
0.28660064581309236
10
106.77500000000003
20
13.236600645813096
42
-0.41421356237309254
10
107.30000000000004
20
13.761600645813093
10
120.25
20
13.761600645813097
42
-0.41421356237309503
10
120.77500000000001
20
13.236600645813095
10
120.77499999999999
20
0.28660064581309103
42
-0.41421356237309503
0
LWPOLYLINE
5
121
100
AcDbEntity
8
0
100
AcDbPolyline
90
8
70
1
43
0.0
10
139.30000000000001
20
-0.23839935418690761
10
126.35000000000004
20
-0.23839935418690983
42
-0.41421356237309515
10
125.82500000000003
20
0.28660064581309247
10
125.82500000000005
20
13.236600645813098
42
-0.41421356237309254
10
126.35000000000005
20
13.761600645813095
10
139.30000000000001
20
13.761600645813095
42
-0.41421356237309503
10
139.82500000000002
20
13.236600645813093
10
139.82499999999999
20
0.28660064581308881
42
-0.4142135623730937
0
LWPOLYLINE
5
122
100
AcDbEntity
8
0
100
AcDbPolyline
90
8
70
1
43
0.0
10
158.35000000000002
20
-0.23839935418690755
10
145.40000000000001
20
-0.23839935418690983
42
-0.41421356237309515
10
144.875
20
0.28660064581309247
10
144.87500000000003
20
13.236600645813098
42
-0.41421356237309254
10
145.40000000000003
20
13.761600645813095
10
158.35000000000002
20
13.761600645813095
42
-0.41421356237309503
10
158.87500000000003
20
13.236600645813093
10
158.875
20
0.28660064581309103
42
-0.41421356237309492
0
LWPOLYLINE
5
123
100
AcDbEntity
8
0
100
AcDbPolyline
90
8
70
1
43
0.0
10
159.6875
20
-5.2883993541868746
10
172.63750000000002
20
-5.2883993541868843
42
-0.41421356237309381
10
173.16249999999999
20
-5.8133993541868669
10
173.16249999999997
20
-18.763399354186866
42
-0.41421356237309626
10
172.63749999999999
20
-19.288399354186872
10
159.6875
20
-19.288399354186879
42
-0.41421356237309626
10
159.16249999999999
20
-18.763399354186873
10
159.16249999999999
20
-5.813399354186874
42
-0.4142135623730957
0
LWPOLYLINE
5
124
100
AcDbEntity
8
0
100
AcDbPolyline
90
8
70
1
43
0.0
10
182.68750000000006
20
13.236600645813095
10
182.68750000000006
20
0.28660064581309103
42
-0.4142135623730952
10
182.16250000000005
20
-0.23839935418690944
10
169.21250000000001
20
-0.23839935418689215
42
-0.41421356237309509
10
168.68750000000003
20
0.2866006458130923
10
168.68750000000006
20
13.236600645813096
42
-0.41421356237309254
10
169.21250000000003
20
13.761600645813093
10
182.16250000000005
20
13.761600645813079
42
-0.41421356237309503
0
LWPOLYLINE
5
125
100
AcDbEntity
8
0
100
AcDbPolyline
90
8
70
1
43
0.0
10
116.82500000000002
20
32.811600645813087
10
129.77500000000001
20
32.811600645813094
42
-0.41421356237309503
10
130.30000000000001
20
32.286600645813095
10
130.29999999999998
20
19.336600645813093
42
-0.41421356237309381
10
129.77499999999998
20
18.811600645813094
10
116.82500000000002
20
18.81160064581309
42
-0.41421356237309503
10
116.30000000000001
20
19.336600645813093
10
116.30000000000003
20
32.286600645813095
42
-0.41421356237309503
0
LWPOLYLINE
5
126
100
AcDbEntity
8
0
100
AcDbPolyline
90
8
70
1
43
0.0
10
16.812500000000007
20
-5.2883993541869065
10
29.76250000000001
20
-5.2883993541869039
42
-0.41421356237309503
10
30.287500000000016
20
-5.813399354186906
10
30.287500000000016
20
-18.763399354186905
42
-0.41421356237309503
10
29.76250000000001
20
-19.288399354186907
10
16.812500000000007
20
-19.288399354186904
42
-0.41421356237309381
10
16.287500000000009
20
-18.763399354186905
10
16.287500000000009
20
-5.813399354186906
42
-0.41421356237309442
0
LWPOLYLINE
5
127
100
AcDbEntity
8
0
100
AcDbPolyline
90
8
70
1
43
0.0
10
135.87500000000003
20
32.811600645813087
10
148.82499999999999
20
32.811600645813094
42
-0.41421356237309503
10
149.34999999999999
20
32.286600645813095
10
149.34999999999999
20
19.336600645813085
42
-0.41421356237309254
10
148.82499999999999
20
18.81160064581309
10
135.875
20
18.81160064581309
42
-0.41421356237309503
10
135.34999999999999
20
19.336600645813093
10
135.35000000000002
20
32.286600645813095
42
-0.41421356237309503
0
LWPOLYLINE
5
128
100
AcDbEntity
8
0
100
AcDbPolyline
90
8
70
1
43
0.0
10
2.5249999999999986
20
32.811600645813087
10
15.475000000000003
20
32.811600645813087
42
-0.41421356237309381
10
16
20
32.286600645813095
10
16
20
19.336600645813093
42
-0.41421356237309381
10
15.475000000000001
20
18.811600645813094
10
2.524999999999995
20
18.811600645813094
42
-0.41421356237309381
10
1.9999999999999973
20
19.336600645813093
10
2.0000000000000053
20
32.286600645813095
42
-0.41421356237309503
0
LWPOLYLINE
5
129
100
AcDbEntity
8
0
100
AcDbPolyline
90
8
70
1
43
0.0
10
59.675000000000011
20
32.811600645813087
10
72.625000000000014
20
32.811600645813087
42
-0.41421356237309503
10
73.150000000000006
20
32.286600645813088
10
73.150000000000006
20
19.336600645813093
42
-0.41421356237309381
10
72.625000000000014
20
18.811600645813094
10
59.675000000000011
20
18.81160064581309
42
-0.41421356237309503
10
59.150000000000006
20
19.336600645813093
10
59.15000000000002
20
32.286600645813095
42
-0.41421356237309503
0
LWPOLYLINE
5
130
100
AcDbEntity
8
0
100
AcDbPolyline
90
8
70
1
43
0.0
10
21.575000000000003
20
32.811600645813087
10
34.524999999999999
20
32.811600645813101
42
-0.41421356237309503
10
35.050000000000004
20
32.286600645813095
10
35.049999999999997
20
19.336600645813093
42
-0.41421356237309503
10
34.524999999999999
20
18.81160064581309
10
21.575000000000003
20
18.81160064581309
42
-0.41421356237309503
10
21.050000000000001
20
19.336600645813093
10
21.050000000000008
20
32.286600645813103
42
-0.41421356237309254
0
LWPOLYLINE
5
131
100
AcDbEntity
8
0
100
AcDbPolyline
90
8
70
1
43
0.0
10
40.625000000000007
20
32.811600645813087
10
53.575000000000003
20
32.811600645813087
42
-0.41421356237309503
10
54.100000000000001
20
32.286600645813088
10
54.100000000000001
20
19.336600645813093
42
-0.41421356237309381
10
53.575000000000003
20
18.811600645813094
10
40.625000000000007
20
18.81160064581309
42
-0.41421356237309503
10
40.100000000000009
20
19.336600645813093
10
40.100000000000016
20
32.286600645813095
42
-0.41421356237309503
0
LWPOLYLINE
5
132
100
AcDbEntity
8
0
100
AcDbPolyline
90
16
70
1
43
0.0
10
11.906250000000007
20
-3.288399354186895
10
11.906250000000009
20
-20.238399354186907
42
0.41421356237309442
10
12.956250000000013
20
-21.2883993541869
10
176.49374999999998
20
-21.288399354186897
42
0.41421356237309381
10
177.54374999999999
20
-20.238399354186885
10
177.54374999999999
20
-3.2883993541868928
42
-0.41421356237309426
10
178.59375
20
-2.2383993541868867
10
188.40000000000001
20
-2.2383993541868903
42
0.41421356237307833
10
189.44999999999999
20
-1.1883993541868867
10
189.44999999999999
20
52.811600645813115
42
0.41421356237308515
10
188.39999999999998
20
53.86160064581312
10
1.0500000000000043
20
53.861600645813084
42
0.4142135623730957
10
-2.2204460492503178e-15
20
52.81160064581308
10
1.3877787807814457e-16
20
-1.1883993541869042
42
0.41421356237309426
10
1.0500000000000005
20
-2.2383993541869001
10
10.856250000000003
20
-2.2383993541869032
42
-0.41421356237309781
0
LWPOLYLINE
5
133
100
AcDbEntity
8
0
100
AcDbPolyline
90
8
70
1
43
0.0
10
147.69999999999999
20
-18.288399354186868
10
141.75
20
-18.288399354186875
42
-0.41421356237309748
10
141.22499999999999
20
-17.76339935418687
10
141.22499999999999
20
-3.8133993541868771
42
-0.41421356237309503
10
141.75
20
-3.2883993541868755
10
147.70000000000002
20
-3.288399354186871
42
-0.41421356237309503
10
148.22500000000002
20
-3.8133993541868731
10
148.22499999999999
20
-17.763399354186866
42
-0.41421356237309503
0
LWPOLYLINE
5
134
100
AcDbEntity
8
0
100
AcDbPolyline
90
8
70
1
43
0.0
10
47.699999999999996
20
-18.288399354186893
10
41.75
20
-18.288399354186897
42
-0.41421356237309626
10
41.224999999999994
20
-17.763399354186895
10
41.224999999999994
20
-3.8133993541868971
42
-0.41421356237309442
10
41.75
20
-3.2883993541868972
10
47.699999999999996
20
-3.2883993541868946
42
-0.41421356237309503
10
48.224999999999994
20
-3.8133993541868967
10
48.224999999999994
20
-17.763399354186888
42
-0.41421356237309748
0
ENDSEC
0
SECTION
2
OBJECTS
0
DICTIONARY
5
C
100
AcDbDictionary
3
ACAD_GROUP
350
D
3
ACAD_MLINESTYLE
350
17
0
DICTIONARY
5
D
100
AcDbDictionary
0
DICTIONARY
5
1A
330
C
100
AcDbDictionary
0
DICTIONARY
5
17
100
AcDbDictionary
0
ENDSEC
0
EOF
