0
SECTION
2
HEADER
9
$INSUNITS
70
4
9
$ACADVER
1
AC1014
9
$HANDSEED
5
FFFF
0
ENDSEC
0
SECTION
2
TABLES
0
TABLE
2
VPORT
5
8
100
AcDbSymbolTable
0
ENDTAB
0
TABLE
2
LTYPE
5
5
100
AcDbSymbolTable
0
LTYPE
5
14
100
AcDbSymbolTableRecord
100
AcDbLinetypeTableRecord
2
BYBLOCK
70
0
0
LTYPE
5
15
100
AcDbSymbolTableRecord
100
AcDbLinetypeTableRecord
2
BYLAYER
70
0
0
ENDTAB
0
TABLE
2
LAYER
5
2
100
AcDbSymbolTable
70
2
0
LAYER
5
50
100
AcDbSymbolTableRecord
100
AcDbLayerTableRecord
2
0
70
0
6
CONTINUOUS
0
ENDTAB
0
TABLE
2
STYLE
5
3
100
AcDbSymbolTable
70
1
0
STYLE
5
11
100
AcDbSymbolTableRecord
100
AcDbTextStyleTableRecord
2
STANDARD
70
0
0
ENDTAB
0
TABLE
2
VIEW
5
6
100
AcDbSymbolTable
70
0
0
ENDTAB
0
TABLE
2
UCS
5
7
100
AcDbSymbolTable
70
0
0
ENDTAB
0
TABLE
2
APPID
5
9
100
AcDbSymbolTable
70
2
0
APPID
5
12
100
AcDbSymbolTableRecord
100
AcDbRegAppTableRecord
2
ACAD
70
0
0
ENDTAB
0
TABLE
2
DIMSTYLE
5
A
100
AcDbSymbolTable
70
1
0
ENDTAB
0
TABLE
2
BLOCK_RECORD
5
1
100
AcDbSymbolTable
70
1
0
BLOCK_RECORD
5
1F
100
AcDbSymbolTableRecord
100
AcDbBlockTableRecord
2
*MODEL_SPACE
0
BLOCK_RECORD
5
1B
100
AcDbSymbolTableRecord
100
AcDbBlockTableRecord
2
*PAPER_SPACE
0
ENDTAB
0
ENDSEC
0
SECTION
2
BLOCKS
0
BLOCK
5
20
100
AcDbEntity
100
AcDbBlockBegin
2
*MODEL_SPACE
0
ENDBLK
5
21
100
AcDbEntity
100
AcDbBlockEnd
0
BLOCK
5
1C
100
AcDbEntity
100
AcDbBlockBegin
2
*PAPER_SPACE
0
ENDBLK
5
1D
100
AcDbEntity
100
AcDbBlockEnd
0
ENDSEC
0
SECTION
2
ENTITIES
0
LWPOLYLINE
5
100
100
AcDbEntity
8
0
100
AcDbPolyline
90
8
70
1
43
0.0
10
186.92500000000007
20
-0.2383993541869065
10
173.97500000000002
20
-0.23839935418689079
42
-0.4142135623730952
10
173.45000000000002
20
0.28660064581309386
10
173.45000000000005
20
13.236600645813093
42
-0.41421356237309381
10
173.97500000000005
20
13.76160064581309
10
186.92500000000007
20
13.761600645813077
42
-0.41421356237309503
10
187.45000000000005
20
13.236600645813093
10
187.45000000000005
20
0.28660064581309108
42
-0.41421356237309348
0
LWPOLYLINE
5
101
100
AcDbEntity
8
0
100
AcDbPolyline
90
8
70
1
43
0.0
10
111.25000000000001
20
51.336600645813093
10
111.25000000000001
20
38.38660064581309
42
-0.41421356237309748
10
110.72500000000002
20
37.861600645813084
10
97.77500000000002
20
37.861600645813077
42
-0.41421356237309503
10
97.250000000000014
20
38.386600645813076
10
97.250000000000028
20
51.3366006458131
42
-0.41421356237309503
10
97.775000000000034
20
51.861600645813098
10
110.72500000000002
20
51.861600645813091
42
-0.41421356237309503
0
LWPOLYLINE
5
102
100
AcDbEntity
8
0
100
AcDbPolyline
90
8
70
1
43
0.0
10
2.5249999999999986
20
32.811600645813094
10
15.475000000000003
20
32.811600645813087
42
-0.41421356237309626
10
16
20
32.286600645813081
10
16
20
19.336600645813082
42
-0.41421356237309132
10
15.475000000000001
20
18.81160064581309
10
2.5249999999999972
20
18.81160064581309
42
-0.4142135623730957
10
1.9999999999999984
20
19.336600645813093
10
1.9999999999999918
20
32.286600645813095
42
-0.41421356237309009
0
LWPOLYLINE
5
103
100
AcDbEntity
8
0
100
AcDbPolyline
90
8
70
1
43
0.0
10
162.06874999999999
20
-5.2883993541868772
10
175.01875000000001
20
-5.2883993541868861
42
-0.41421356237309503
10
175.54374999999999
20
-5.8133993541868705
10
175.54375000000005
20
-18.763399354186866
42
-0.41421356237309626
10
175.01875000000001
20
-19.288399354186875
10
162.06874999999999
20
-19.288399354186858
42
-0.41421356237309503
10
161.54375000000002
20
-18.763399354186873
10
161.54375000000002
20
-5.8133993541868767
42
-0.4142135623730957
0
LWPOLYLINE
5
104
100
AcDbEntity
8
0
100
AcDbPolyline
90
8
70
1
43
0.0
10
116.82500000000002
20
32.811600645813094
10
129.77500000000001
20
32.811600645813087
42
-0.41421356237309748
10
130.30000000000001
20
32.286600645813081
10
130.29999999999998
20
19.336600645813082
42
-0.41421356237309132
10
129.77499999999998
20
18.81160064581309
10
116.82500000000002
20
18.811600645813087
42
-0.41421356237309626
10
116.30000000000001
20
19.336600645813093
10
116.30000000000001
20
32.286600645813095
42
-0.41421356237309009
0
LWPOLYLINE
5
105
100
AcDbEntity
8
0
100
AcDbPolyline
90
8
70
1
43
0.0
10
148.82499999999999
20
-0.23839935418690655
10
135.875
20
-0.23839935418690869
42
-0.41421356237309509
10
135.34999999999999
20
0.28660064581309358
10
135.35000000000002
20
13.236600645813093
42
-0.41421356237309381
10
135.87500000000003
20
13.76160064581309
10
148.82499999999999
20
13.761600645813093
42
-0.41421356237309503
10
149.34999999999999
20
13.236600645813091
10
149.34999999999999
20
0.28660064581309108
42
-0.41421356237309365
0
LWPOLYLINE
5
106
100
AcDbEntity
8
0
100
AcDbPolyline
90
8
70
1
43
0.0
10
78.725000000000009
20
32.811600645813094
10
91.675000000000011
20
32.811600645813087
42
-0.41421356237309748
10
92.200000000000003
20
32.286600645813081
10
92.200000000000003
20
19.336600645813078
42
-0.41421356237309009
10
91.675000000000011
20
18.81160064581309
10
78.725000000000009
20
18.811600645813087
42
-0.41421356237309626
10
78.200000000000017
20
19.336600645813093
10
78.200000000000003
20
32.286600645813095
42
-0.41421356237309009
0
LWPOLYLINE
5
107
100
AcDbEntity
8
0
100
AcDbPolyline
90
8
70
1
43
0.0
10
54.100000000000001
20
51.3366006458131
10
54.100000000000001
20
38.386600645813076
42
-0.41421356237309254
10
53.575000000000003
20
37.861600645813084
10
40.625000000000007
20
37.861600645813084
42
-0.41421356237309503
10
40.100000000000009
20
38.38660064581309
10
40.100000000000009
20
51.3366006458131
42
-0.41421356237309503
10
40.625000000000007
20
51.861600645813098
10
53.575000000000003
20
51.861600645813098
42
-0.41421356237309503
0
LWPOLYLINE
5
108
100
AcDbEntity
8
0
100
AcDbPolyline
90
8
70
1
43
0.0
10
34.524999999999999
20
-0.23839935418691105
10
21.575000000000003
20
-0.23839935418691313
42
-0.41421356237309509
10
21.050000000000001
20
0.28660064581308908
10
21.050000000000004
20
13.236600645813093
42
-0.41421356237309381
10
21.575000000000003
20
13.76160064581309
10
34.524999999999999
20
13.761600645813093
42
-0.41421356237309503
10
35.050000000000004
20
13.236600645813091
10
35.050000000000004
20
0.28660064581308664
42
-0.4142135623730937
0
LWPOLYLINE
5
109
100
AcDbEntity
8
0
100
AcDbPolyline
90
8
70
1
43
0.0
10
53.575000000000003
20
-0.23839935418691111
10
40.625000000000007
20
-0.23839935418691327
42
-0.41421356237309515
10
40.100000000000009
20
0.28660064581308903
10
40.100000000000009
20
13.236600645813091
42
-0.41421356237309381
10
40.625000000000007
20
13.761600645813088
10
53.575000000000003
20
13.761600645813093
42
-0.41421356237309503
10
54.100000000000001
20
13.236600645813091
10
54.100000000000001
20
0.28660064581308659
42
-0.41421356237309359
0
LWPOLYLINE
5
110
100
AcDbEntity
8
0
100
AcDbPolyline
90
8
70
1
43
0.0
10
135.87500000000003
20
32.811600645813094
10
148.82499999999999
20
32.811600645813087
42
-0.41421356237309748
10
149.34999999999999
20
32.286600645813081
10
149.34999999999999
20
19.336600645813078
42
-0.41421356237309009
10
148.82499999999999
20
18.81160064581309
10
135.875
20
18.811600645813087
42
-0.41421356237309626
10
135.34999999999999
20
19.336600645813093
10
135.35000000000002
20
32.286600645813095
42
-0.41421356237309009
0
LWPOLYLINE
5
111
100
AcDbEntity
8
0
100
AcDbPolyline
90
8
70
1
43
0.0
10
59.675000000000011
20
32.811600645813094
10
72.625000000000014
20
32.811600645813087
42
-0.41421356237309748
10
73.150000000000006
20
32.286600645813081
10
73.150000000000006
20
19.336600645813082
42
-0.41421356237309132
10
72.625000000000014
20
18.81160064581309
10
59.675000000000011
20
18.811600645813087
42
-0.41421356237309626
10
59.150000000000006
20
19.336600645813093
10
59.150000000000006
20
32.286600645813095
42
-0.41421356237309009
0
LWPOLYLINE
5
112
100
AcDbEntity
8
0
100
AcDbPolyline
90
8
70
1
43
0.0
10
73.150000000000006
20
51.336600645813107
10
73.150000000000006
20
38.38660064581309
42
-0.41421356237309748
10
72.625000000000014
20
37.861600645813084
10
59.675000000000011
20
37.861600645813084
42
-0.41421356237309503
10
59.150000000000006
20
38.38660064581309
10
59.150000000000006
20
51.3366006458131
42
-0.41421356237309503
10
59.675000000000011
20
51.861600645813098
10
72.625000000000014
20
51.861600645813112
42
-0.41421356237309503
0
LWPOLYLINE
5
113
100
AcDbEntity
8
0
100
AcDbPolyline
90
8
70
1
43
0.0
10
149.34999999999999
20
51.336600645813093
10
149.34999999999999
20
38.38660064581309
42
-0.41421356237309748
10
148.82499999999999
20
37.861600645813084
10
135.875
20
37.861600645813084
42
-0.41421356237309503
10
135.34999999999999
20
38.386600645813083
10
135.35000000000002
20
51.3366006458131
42
-0.41421356237309503
10
135.87500000000003
20
51.861600645813098
10
148.82499999999999
20
51.861600645813091
42
-0.41421356237309503
0
LWPOLYLINE
5
114
100
AcDbEntity
8
0
100
AcDbPolyline
90
8
70
1
43
0.0
10
97.775000000000034
20
32.811600645813087
10
110.72500000000002
20
32.811600645813087
42
-0.41421356237309748
10
111.25000000000001
20
32.286600645813081
10
111.25000000000001
20
19.336600645813085
42
-0.41421356237309254
10
110.72500000000002
20
18.81160064581309
10
97.77500000000002
20
18.811600645813087
42
-0.41421356237309626
10
97.250000000000014
20
19.336600645813093
10
97.250000000000028
20
32.286600645813095
42
-0.41421356237309009
0
LWPOLYLINE
5
115
100
AcDbEntity
8
0
100
AcDbPolyline
90
8
70
1
43
0.0
10
92.200000000000003
20
51.336600645813093
10
92.200000000000003
20
38.38660064581309
42
-0.41421356237309748
10
91.675000000000011
20
37.861600645813084
10
78.725000000000009
20
37.861600645813084
42
-0.41421356237309503
10
78.200000000000017
20
38.38660064581309
10
78.200000000000017
20
51.3366006458131
42
-0.41421356237309503
10
78.725000000000009
20
51.861600645813098
10
91.675000000000011
20
51.861600645813091
42
-0.41421356237309503
0
LWPOLYLINE
5
116
100
AcDbEntity
8
0
100
AcDbPolyline
90
8
70
1
43
0.0
10
187.45000000000005
20
51.336600645813093
10
187.45000000000005
20
38.386600645813076
42
-0.41421356237309254
10
186.92500000000007
20
37.861600645813084
10
173.97500000000002
20
37.861600645813105
42
-0.41421356237309503
10
173.45000000000002
20
38.38660064581309
10
173.45000000000005
20
51.3366006458131
42
-0.41421356237309503
10
173.97500000000005
20
51.861600645813098
10
186.92500000000007
20
51.861600645813077
42
-0.41421356237309503
0
LWPOLYLINE
5
117
100
AcDbEntity
8
0
100
AcDbPolyline
90
8
70
1
43
0.0
10
129.77499999999998
20
-0.2383993541869065
10
116.82500000000002
20
-0.23839935418690855
42
-0.41421356237309509
10
116.30000000000001
20
0.28660064581309369
10
116.30000000000001
20
13.236600645813093
42
-0.41421356237309381
10
116.82500000000002
20
13.76160064581309
10
129.77500000000001
20
13.761600645813093
42
-0.41421356237309503
10
130.30000000000001
20
13.236600645813091
10
130.29999999999998
20
0.28660064581309103
42
-0.41421356237309315
0
LWPOLYLINE
5
118
100
AcDbEntity
8
0
100
AcDbPolyline
90
8
70
1
43
0.0
10
168.40000000000003
20
51.336600645813093
10
168.40000000000003
20
38.386600645813076
42
-0.41421356237309254
10
167.87500000000006
20
37.861600645813084
10
154.92500000000001
20
37.861600645813077
42
-0.41421356237309503
10
154.40000000000001
20
38.386600645813076
10
154.40000000000003
20
51.3366006458131
42
-0.41421356237309503
10
154.92500000000004
20
51.861600645813098
10
167.87500000000006
20
51.861600645813077
42
-0.41421356237309503
0
LWPOLYLINE
5
119
100
AcDbEntity
8
0
100
AcDbPolyline
90
8
70
1
43
0.0
10
2.5249999999999986
20
13.761600645813093
10
15.474999999999998
20
13.76160064581309
42
-0.41421356237309626
10
16
20
13.236600645813091
10
15.999999999999998
20
0.28660064581308664
42
-0.4142135623730932
10
15.474999999999998
20
-0.23839935418691011
10
2.5249999999999999
20
-0.23839935418691086
42
-0.41421356237309581
10
1.9999999999999984
20
0.28660064581308925
10
1.9999999999999962
20
13.236600645813093
42
-0.41421356237309381
0
LWPOLYLINE
5
120
100
AcDbEntity
8
0
100
AcDbPolyline
90
8
70
1
43
0.0
10
186.92500000000007
20
18.811600645813094
10
173.97500000000002
20
18.811600645813101
42
-0.41421356237309626
10
173.45000000000002
20
19.336600645813089
10
173.45000000000005
20
32.286600645813081
42
-0.41421356237309254
10
173.97500000000005
20
32.81160064581308
10
186.92500000000007
20
32.811600645813066
42
-0.41421356237309748
10
187.45000000000005
20
32.286600645813074
10
187.45000000000005
20
19.336600645813082
42
-0.41421356237309132
0
LWPOLYLINE
5
121
100
AcDbEntity
8
0
100
AcDbPolyline
90
8
70
1
43
0.0
10
40.625000000000007
20
32.811600645813094
10
53.575000000000003
20
32.811600645813087
42
-0.41421356237309748
10
54.100000000000001
20
32.286600645813081
10
54.100000000000001
20
19.336600645813082
42
-0.41421356237309132
10
53.575000000000003
20
18.81160064581309
10
40.625000000000007
20
18.811600645813083
42
-0.41421356237309626
10
40.100000000000009
20
19.336600645813089
10
40.099999999999994
20
32.286600645813095
42
-0.41421356237309254
0
LWPOLYLINE
5
122
100
AcDbEntity
8
0
100
AcDbPolyline
90
8
70
1
43
0.0
10
91.675000000000011
20
-0.23839935418690655
10
78.725000000000009
20
-0.23839935418690869
42
-0.41421356237309509
10
78.200000000000017
20
0.28660064581309358
10
78.200000000000017
20
13.236600645813093
42
-0.41421356237309254
10
78.725000000000009
20
13.761600645813088
10
91.675000000000011
20
13.761600645813093
42
-0.41421356237309503
10
92.200000000000003
20
13.236600645813091
10
92.200000000000003
20
0.28660064581309097
42
-0.41421356237309326
0
LWPOLYLINE
5
123
100
AcDbEntity
8
0
100
AcDbPolyline
90
8
70
1
43
0.0
10
27.381250000000009
20
-19.288399354186911
10
14.431250000000009
20
-19.288399354186907
42
-0.41421356237309381
10
13.906250000000011
20
-18.763399354186909
10
13.906250000000009
20
-5.813399354186906
42
-0.4142135623730932
10
14.431250000000009
20
-5.2883993541869101
10
27.381250000000009
20
-5.2883993541869065
42
-0.41421356237309442
10
27.906250000000014
20
-5.8133993541869078
10
27.906250000000014
20
-18.763399354186909
42
-0.41421356237309503
0
LWPOLYLINE
5
124
100
AcDbEntity
8
0
100
AcDbPolyline
90
8
70
1
43
0.0
10
130.30000000000001
20
51.336600645813093
10
130.29999999999998
20
38.38660064581309
42
-0.41421356237309748
10
129.77499999999998
20
37.861600645813084
10
116.82500000000002
20
37.861600645813084
42
-0.41421356237309503
10
116.30000000000001
20
38.386600645813083
10
116.30000000000001
20
51.3366006458131
42
-0.41421356237309503
10
116.82500000000002
20
51.861600645813098
10
129.77500000000001
20
51.861600645813091
42
-0.41421356237309503
0
LWPOLYLINE
5
125
100
AcDbEntity
8
0
100
AcDbPolyline
90
8
70
1
43
0.0
10
35.050000000000004
20
51.3366006458131
10
35.050000000000004
20
38.386600645813076
42
-0.41421356237309254
10
34.524999999999999
20
37.861600645813084
10
21.575000000000003
20
37.861600645813077
42
-0.41421356237309748
10
21.050000000000001
20
38.386600645813083
10
21.050000000000001
20
51.3366006458131
42
-0.41421356237309503
10
21.575000000000003
20
51.861600645813098
10
34.524999999999999
20
51.861600645813098
42
-0.41421356237309503
0
LWPOLYLINE
5
126
100
AcDbEntity
8
0
100
AcDbPolyline
90
8
70
1
43
0.0
10
154.92500000000004
20
32.811600645813087
10
167.87500000000006
20
32.811600645813066
42
-0.41421356237309748
10
168.40000000000003
20
32.286600645813081
10
168.40000000000003
20
19.336600645813085
42
-0.41421356237309254
10
167.87500000000006
20
18.81160064581309
10
154.92500000000001
20
18.811600645813087
42
-0.41421356237309626
10
154.40000000000001
20
19.336600645813093
10
154.40000000000003
20
32.286600645813095
42
-0.41421356237309009
0
LWPOLYLINE
5
127
100
AcDbEntity
8
0
100
AcDbPolyline
90
8
70
1
43
0.0
10
110.72500000000002
20
-0.23839935418690658
10
97.77500000000002
20
-0.23839935418690869
42
-0.4142135623730952
10
97.250000000000014
20
0.2866006458130938
10
97.250000000000028
20
13.236600645813093
42
-0.41421356237309381
10
97.775000000000034
20
13.76160064581309
10
110.72500000000002
20
13.761600645813093
42
-0.41421356237309503
10
111.25000000000001
20
13.236600645813091
10
111.25000000000001
20
0.28660064581309103
42
-0.4142135623730932
0
LWPOLYLINE
5
128
100
AcDbEntity
8
0
100
AcDbPolyline
90
8
70
1
43
0.0
10
167.87500000000006
20
-0.23839935418690658
10
154.92500000000001
20
-0.23839935418690869
42
-0.41421356237309515
10
154.40000000000001
20
0.28660064581309369
10
154.40000000000003
20
13.236600645813093
42
-0.41421356237309381
10
154.92500000000004
20
13.76160064581309
10
167.87500000000006
20
13.761600645813076
42
-0.41421356237309503
10
168.40000000000003
20
13.236600645813091
10
168.40000000000003
20
0.28660064581309108
42
-0.41421356237309354
0
LWPOLYLINE
5
129
100
AcDbEntity
8
0
100
AcDbPolyline
90
8
70
1
43
0.0
10
21.575000000000003
20
32.811600645813094
10
34.524999999999999
20
32.811600645813094
42
-0.41421356237309748
10
35.050000000000004
20
32.286600645813088
10
35.049999999999997
20
19.336600645813085
42
-0.41421356237309254
10
34.524999999999999
20
18.81160064581309
10
21.575000000000006
20
18.811600645813087
42
-0.41421356237309626
10
21.050000000000001
20
19.336600645813093
10
21.049999999999997
20
32.286600645813095
42
-0.41421356237309009
0
LWPOLYLINE
5
130
100
AcDbEntity
8
0
100
AcDbPolyline
90
8
70
1
43
0.0
10
15.475000000000003
20
37.861600645813091
10
2.5249999999999995
20
37.861600645813084
42
-0.41421356237309848
10
1.9999999999999978
20
38.38660064581309
10
1.9999999999999962
20
51.3366006458131
42
-0.41421356237309503
10
2.5249999999999986
20
51.861600645813098
10
15.475000000000003
20
51.861600645813098
42
-0.41421356237309381
10
16
20
51.3366006458131
10
15.999999999999996
20
38.38660064581309
42
-0.41421356237309748
0
LWPOLYLINE
5
131
100
AcDbEntity
8
0
100
AcDbPolyline
90
8
70
1
43
0.0
10
72.625000000000014
20
-0.2383993541869065
10
59.675000000000011
20
-0.23839935418690855
42
-0.41421356237309515
10
59.150000000000006
20
0.2866006458130938
10
59.150000000000006
20
13.236600645813093
42
-0.41421356237309381
10
59.675000000000011
20
13.76160064581309
10
72.625000000000014
20
13.761600645813093
42
-0.41421356237309503
10
73.150000000000006
20
13.236600645813091
10
73.150000000000006
20
0.28660064581309108
42
-0.41421356237309348
0
LWPOLYLINE
5
132
100
AcDbEntity
8
0
100
AcDbPolyline
90
16
70
1
43
0.0
10
11.906250000000007
20
-3.2883993541869012
10
11.906250000000009
20
-20.238399354186907
42
0.4142135623730957
10
12.956250000000013
20
-21.2883993541869
10
176.49374999999998
20
-21.288399354186897
42
0.41421356237309381
10
177.54374999999999
20
-20.238399354186893
10
177.54374999999999
20
-3.2883993541868928
42
-0.41421356237309348
10
178.59375
20
-2.2383993541868903
10
188.40000000000001
20
-2.2383993541868903
42
0.41421356237307833
10
189.44999999999999
20
-1.18839935418689
10
189.44999999999999
20
52.81160064581313
42
0.41421356237308515
10
188.39999999999998
20
53.861600645813127
10
1.0500000000000043
20
53.861600645813098
42
0.4142135623730957
10
-2.4980018054066022e-15
20
52.811600645813087
10
1.3877787807814457e-16
20
-1.1883993541869131
42
0.41421356237309281
10
1.0500000000000005
20
-2.2383993541869036
10
10.856250000000003
20
-2.2383993541869076
42
-0.41421356237309825
0
LWPOLYLINE
5
133
100
AcDbEntity
8
0
100
AcDbPolyline
90
8
70
1
43
0.0
10
109.63800000000001
20
-18.288399354186893
10
103.68800000000002
20
-18.288399354186897
42
-0.41421356237309381
10
103.16300000000001
20
-17.763399354186898
10
103.16300000000004
20
-3.8133993541868993
42
-0.41421356237309415
10
103.68800000000005
20
-3.2883993541869017
10
109.63800000000001
20
-3.288399354186891
42
-0.41421356237309287
10
110.16300000000001
20
-3.8133993541868891
10
110.16300000000001
20
-17.763399354186888
42
-0.41421356237309381
0
LWPOLYLINE
5
134
100
AcDbEntity
8
0
100
AcDbPolyline
90
8
70
1
43
0.0
10
79.811999999999998
20
-3.2883993541869079
10
85.761999999999986
20
-3.2883993541868985
42
-0.41421356237309503
10
86.286999999999978
20
-3.8133993541869007
10
86.286999999999964
20
-17.763399354186898
42
-0.41421356237309254
10
85.761999999999972
20
-18.288399354186897
10
79.811999999999998
20
-18.288399354186907
42
-0.41421356237309503
10
79.286999999999992
20
-17.763399354186905
10
79.286999999999992
20
-3.813399354186906
42
-0.41421356237309442
0
LWPOLYLINE
5
135
100
AcDbEntity
8
0
100
AcDbPolyline
90
8
70
1
43
0.0
10
155.96874999999997
20
-19.288399354186886
10
143.01875000000001
20
-19.288399354186886
42
-0.41421356237309503
10
142.49375000000001
20
-18.763399354186884
10
142.49375000000003
20
-5.8133993541868856
42
-0.4142135623730957
10
143.01875000000001
20
-5.2883993541868861
10
155.96875
20
-5.2883993541868781
42
-0.41421356237309503
10
156.49374999999998
20
-5.8133993541868803
10
156.49374999999998
20
-18.763399354186877
42
-0.41421356237309503
0
LWPOLYLINE
5
136
100
AcDbEntity
8
0
100
AcDbPolyline
90
8
70
1
43
0.0
10
46.431250000000013
20
-19.288399354186911
10
33.481250000000017
20
-19.288399354186907
42
-0.41421356237309503
10
32.956250000000011
20
-18.763399354186909
10
32.956250000000018
20
-5.813399354186906
42
-0.4142135623730932
10
33.481250000000017
20
-5.2883993541869101
10
46.431250000000013
20
-5.2883993541869065
42
-0.41421356237309442
10
46.956250000000011
20
-5.8133993541869078
10
46.956250000000011
20
-18.763399354186909
42
-0.41421356237309503
0
LWPOLYLINE
5
137
100
AcDbEntity
8
0
100
AcDbPolyline
90
8
70
1
43
0.0
10
123.44375000000001
20
-18.763399354186898
10
123.44375000000001
20
-5.8133993541868971
42
-0.41421356237309381
10
123.96875000000001
20
-5.2883993541869012
10
136.91874999999999
20
-5.2883993541868968
42
-0.41421356237309503
10
137.44374999999999
20
-5.8133993541868989
10
137.44374999999999
20
-18.763399354186898
42
-0.41421356237309503
10
136.91874999999999
20
-19.288399354186904
10
123.96875000000001
20
-19.2883993541869
42
-0.41421356237309503
0
LWPOLYLINE
5
138
100
AcDbEntity
8
0
100
AcDbPolyline
90
8
70
1
43
0.0
10
66.006250000000023
20
-5.8133993541869078
10
66.006250000000023
20
-18.763399354186909
42
-0.41421356237309503
10
65.481250000000017
20
-19.288399354186911
10
52.531250000000014
20
-19.288399354186907
42
-0.41421356237309503
10
52.006250000000016
20
-18.763399354186909
10
52.006250000000016
20
-5.813399354186906
42
-0.4142135623730932
10
52.531250000000014
20
-5.2883993541869101
10
65.481250000000017
20
-5.2883993541869065
42
-0.41421356237309442
0
LWPOLYLINE
5
139
100
AcDbEntity
8
0
100
AcDbPolyline
90
8
70
1
43
0.0
10
101.19999999999997
20
-19.288399354186907
10
88.250000000000014
20
-19.2883993541869
42
-0.41421356237309503
10
87.725000000000009
20
-18.763399354186898
10
87.725000000000023
20
-5.8133993541868971
42
-0.41421356237309381
10
88.250000000000028
20
-5.2883993541869012
10
101.19999999999999
20
-5.2883993541868959
42
-0.41421356237309503
10
101.72499999999999
20
-5.813399354186898
10
101.72499999999998
20
-18.763399354186902
42
-0.41421356237309503
0
ENDSEC
0
SECTION
2
OBJECTS
0
DICTIONARY
5
C
100
AcDbDictionary
3
ACAD_GROUP
350
D
3
ACAD_MLINESTYLE
350
17
0
DICTIONARY
5
D
100
AcDbDictionary
0
DICTIONARY
5
1A
330
C
100
AcDbDictionary
0
DICTIONARY
5
17
100
AcDbDictionary
0
ENDSEC
0
EOF
