0
SECTION
2
HEADER
9
$INSUNITS
70
4
9
$ACADVER
1
AC1014
9
$HANDSEED
5
FFFF
0
ENDSEC
0
SECTION
2
TABLES
0
TABLE
2
VPORT
5
8
100
AcDbSymbolTable
0
ENDTAB
0
TABLE
2
LTYPE
5
5
100
AcDbSymbolTable
0
LTYPE
5
14
100
AcDbSymbolTableRecord
100
AcDbLinetypeTableRecord
2
BYBLOCK
70
0
0
LTYPE
5
15
100
AcDbSymbolTableRecord
100
AcDbLinetypeTableRecord
2
BYLAYER
70
0
0
ENDTAB
0
TABLE
2
LAYER
5
2
100
AcDbSymbolTable
70
2
0
LAYER
5
50
100
AcDbSymbolTableRecord
100
AcDbLayerTableRecord
2
0
70
0
6
CONTINUOUS
0
ENDTAB
0
TABLE
2
STYLE
5
3
100
AcDbSymbolTable
70
1
0
STYLE
5
11
100
AcDbSymbolTableRecord
100
AcDbTextStyleTableRecord
2
STANDARD
70
0
0
ENDTAB
0
TABLE
2
VIEW
5
6
100
AcDbSymbolTable
70
0
0
ENDTAB
0
TABLE
2
UCS
5
7
100
AcDbSymbolTable
70
0
0
ENDTAB
0
TABLE
2
APPID
5
9
100
AcDbSymbolTable
70
2
0
APPID
5
12
100
AcDbSymbolTableRecord
100
AcDbRegAppTableRecord
2
ACAD
70
0
0
ENDTAB
0
TABLE
2
DIMSTYLE
5
A
100
AcDbSymbolTable
70
1
0
ENDTAB
0
TABLE
2
BLOCK_RECORD
5
1
100
AcDbSymbolTable
70
1
0
BLOCK_RECORD
5
1F
100
AcDbSymbolTableRecord
100
AcDbBlockTableRecord
2
*MODEL_SPACE
0
BLOCK_RECORD
5
1B
100
AcDbSymbolTableRecord
100
AcDbBlockTableRecord
2
*PAPER_SPACE
0
ENDTAB
0
ENDSEC
0
SECTION
2
BLOCKS
0
BLOCK
5
20
100
AcDbEntity
100
AcDbBlockBegin
2
*MODEL_SPACE
0
ENDBLK
5
21
100
AcDbEntity
100
AcDbBlockEnd
0
BLOCK
5
1C
100
AcDbEntity
100
AcDbBlockBegin
2
*PAPER_SPACE
0
ENDBLK
5
1D
100
AcDbEntity
100
AcDbBlockEnd
0
ENDSEC
0
SECTION
2
ENTITIES
0
LWPOLYLINE
5
100
100
AcDbEntity
8
0
100
AcDbPolyline
90
8
70
1
43
0.0
10
63.100000000000009
20
-0.23839935418691102
10
50.150000000000006
20
-0.23839935418691313
42
-0.41421356237309515
10
49.625
20
0.28660064581308919
10
49.625
20
13.236600645813093
42
-0.41421356237309381
10
50.150000000000006
20
13.76160064581309
10
63.100000000000009
20
13.761600645813093
42
-0.41421356237309503
10
63.625000000000007
20
13.236600645813091
10
63.625000000000007
20
0.28660064581308659
42
-0.4142135623730932
0
LWPOLYLINE
5
101
100
AcDbEntity
8
0
100
AcDbPolyline
90
8
70
1
43
0.0
10
82.150000000000006
20
-0.23839935418691102
10
69.200000000000003
20
-0.23839935418691313
42
-0.41421356237309509
10
68.675000000000011
20
0.28660064581308908
10
68.675000000000011
20
13.236600645813093
42
-0.41421356237309381
10
69.200000000000003
20
13.76160064581309
10
82.15000000000002
20
13.76160064581309
42
-0.41421356237309503
10
82.675000000000011
20
13.236600645813088
10
82.674999999999997
20
0.28660064581308881
42
-0.41421356237309437
0
LWPOLYLINE
5
102
100
AcDbEntity
8
0
100
AcDbPolyline
90
8
70
1
43
0.0
10
101.20000000000002
20
-0.23839935418691094
10
88.250000000000014
20
-0.23839935418691299
42
-0.41421356237309509
10
87.725000000000009
20
0.28660064581308925
10
87.725000000000023
20
13.236600645813093
42
-0.41421356237309381
10
88.250000000000028
20
13.76160064581309
10
101.20000000000002
20
13.761600645813093
42
-0.41421356237309503
10
101.72500000000001
20
13.236600645813091
10
101.72500000000001
20
0.28660064581308664
42
-0.41421356237309365
0
LWPOLYLINE
5
103
100
AcDbEntity
8
0
100
AcDbPolyline
90
8
70
1
43
0.0
10
175.01875000000001
20
-19.288399354186872
10
159.6875
20
-19.288399354186879
42
-0.41421356237309626
10
159.16249999999999
20
-18.763399354186873
10
159.16249999999999
20
-5.813399354186874
42
-0.4142135623730957
10
159.6875
20
-5.2883993541868746
10
175.01875000000001
20
-5.288399354186887
42
-0.41421356237309442
10
175.54374999999999
20
-5.8133993541868705
10
175.54374999999999
20
-18.76339935418687
42
-0.41421356237309503
0
LWPOLYLINE
5
104
100
AcDbEntity
8
0
100
AcDbPolyline
90
8
70
1
43
0.0
10
29.76250000000001
20
-19.288399354186907
10
14.431250000000006
20
-19.288399354186904
42
-0.41421356237309254
10
13.906250000000011
20
-18.763399354186909
10
13.906250000000009
20
-5.8133993541869078
42
-0.41421356237309503
10
14.431250000000009
20
-5.2883993541869092
10
29.76250000000001
20
-5.2883993541869039
42
-0.41421356237309503
10
30.287500000000016
20
-5.813399354186906
10
30.287500000000016
20
-18.763399354186905
42
-0.41421356237309503
0
LWPOLYLINE
5
105
100
AcDbEntity
8
0
100
AcDbPolyline
90
8
70
1
43
0.0
10
17.856250000000003
20
18.811600645813101
10
4.9062499999999982
20
18.811600645813098
42
-0.41421356237309442
10
4.3812499999999996
20
19.3366006458131
10
4.3812499999999979
20
32.286600645813095
42
-0.41421356237309009
10
4.90625
20
32.811600645813087
10
17.856250000000003
20
32.81160064581308
42
-0.41421356237309626
10
18.381250000000001
20
32.286600645813081
10
18.381249999999998
20
19.336600645813089
42
-0.41421356237309009
0
LWPOLYLINE
5
106
100
AcDbEntity
8
0
100
AcDbPolyline
90
8
70
1
43
0.0
10
39.287500000000001
20
18.811600645813101
10
26.337500000000006
20
18.811600645813094
42
-0.41421356237309503
10
25.812500000000004
20
19.3366006458131
10
25.812500000000004
20
32.286600645813095
42
-0.41421356237309009
10
26.337500000000006
20
32.811600645813087
10
39.287500000000001
20
32.811600645813094
42
-0.41421356237309748
10
39.812500000000007
20
32.286600645813088
10
39.8125
20
19.336600645813093
42
-0.41421356237309254
0
LWPOLYLINE
5
107
100
AcDbEntity
8
0
100
AcDbPolyline
90
8
70
1
43
0.0
10
120.24999999999999
20
-0.23839935418691102
10
107.30000000000003
20
-0.23839935418691308
42
-0.41421356237309509
10
106.77500000000002
20
0.28660064581308919
10
106.77500000000003
20
13.236600645813093
42
-0.41421356237309381
10
107.30000000000004
20
13.76160064581309
10
120.25
20
13.761600645813095
42
-0.41421356237309503
10
120.77500000000001
20
13.236600645813093
10
120.77499999999999
20
0.28660064581308664
42
-0.41421356237309354
0
LWPOLYLINE
5
108
100
AcDbEntity
8
0
100
AcDbPolyline
90
8
70
1
43
0.0
10
182.68750000000006
20
13.236600645813093
10
182.68750000000006
20
0.28660064581308659
42
-0.41421356237309365
10
182.16250000000005
20
-0.23839935418691099
10
169.21250000000001
20
-0.23839935418689537
42
-0.41421356237309509
10
168.68750000000003
20
0.28660064581308908
10
168.68750000000006
20
13.236600645813093
42
-0.41421356237309381
10
169.21250000000003
20
13.76160064581309
10
182.16250000000005
20
13.761600645813077
42
-0.41421356237309503
0
LWPOLYLINE
5
109
100
AcDbEntity
8
0
100
AcDbPolyline
90
8
70
1
43
0.0
10
139.30000000000001
20
-0.23839935418691102
10
126.35000000000004
20
-0.23839935418691308
42
-0.41421356237309509
10
125.82500000000003
20
0.28660064581308919
10
125.82500000000005
20
13.236600645813093
42
-0.41421356237309381
10
126.35000000000005
20
13.76160064581309
10
139.30000000000001
20
13.761600645813093
42
-0.41421356237309503
10
139.82500000000002
20
13.236600645813091
10
139.82499999999999
20
0.28660064581308659
42
-0.41421356237309342
0
LWPOLYLINE
5
110
100
AcDbEntity
8
0
100
AcDbPolyline
90
8
70
1
43
0.0
10
58.337500000000006
20
18.811600645813101
10
45.387500000000003
20
18.811600645813094
42
-0.41421356237309503
10
44.862499999999997
20
19.336600645813096
10
44.862499999999997
20
32.286600645813095
42
-0.41421356237309254
10
45.387500000000003
20
32.811600645813087
10
58.337500000000006
20
32.811600645813087
42
-0.41421356237309748
10
58.862500000000004
20
32.286600645813081
10
58.862499999999997
20
19.336600645813093
42
-0.41421356237309132
0
LWPOLYLINE
5
111
100
AcDbEntity
8
0
100
AcDbPolyline
90
8
70
1
43
0.0
10
158.35000000000002
20
-0.23839935418691099
10
145.40000000000001
20
-0.23839935418691308
42
-0.41421356237309509
10
144.875
20
0.28660064581308919
10
144.87500000000003
20
13.236600645813095
42
-0.41421356237309254
10
145.40000000000003
20
13.76160064581309
10
158.35000000000002
20
13.761600645813093
42
-0.41421356237309503
10
158.87500000000003
20
13.236600645813091
10
158.875
20
0.28660064581308653
42
-0.41421356237309326
0
LWPOLYLINE
5
112
100
AcDbEntity
8
0
100
AcDbPolyline
90
8
70
1
43
0.0
10
96.4375
20
18.811600645813101
10
83.487500000000011
20
18.811600645813094
42
-0.41421356237309626
10
82.962500000000006
20
19.3366006458131
10
82.96250000000002
20
32.286600645813095
42
-0.41421356237309009
10
83.487500000000026
20
32.811600645813087
10
96.4375
20
32.811600645813087
42
-0.41421356237309748
10
96.962500000000006
20
32.286600645813081
10
96.962500000000006
20
19.336600645813089
42
-0.41421356237309009
0
LWPOLYLINE
5
113
100
AcDbEntity
8
0
100
AcDbPolyline
90
8
70
1
43
0.0
10
77.387500000000017
20
18.811600645813101
10
64.437500000000014
20
18.811600645813094
42
-0.41421356237309503
10
63.912500000000009
20
19.3366006458131
10
63.912500000000009
20
32.286600645813095
42
-0.41421356237309009
10
64.437500000000014
20
32.811600645813087
10
77.387500000000017
20
32.811600645813087
42
-0.41421356237309748
10
77.912500000000023
20
32.286600645813081
10
77.912500000000009
20
19.336600645813093
42
-0.41421356237309132
0
LWPOLYLINE
5
114
100
AcDbEntity
8
0
100
AcDbPolyline
90
8
70
1
43
0.0
10
134.53750000000002
20
18.811600645813101
10
121.58750000000003
20
18.811600645813094
42
-0.41421356237309626
10
121.06250000000003
20
19.3366006458131
10
121.06250000000004
20
32.286600645813095
42
-0.41421356237309009
10
121.58750000000005
20
32.811600645813087
10
134.53750000000002
20
32.811600645813087
42
-0.41421356237309748
10
135.06250000000003
20
32.286600645813081
10
135.06250000000003
20
19.336600645813093
42
-0.41421356237309132
0
LWPOLYLINE
5
115
100
AcDbEntity
8
0
100
AcDbPolyline
90
8
70
1
43
0.0
10
115.48750000000001
20
18.811600645813101
10
102.53750000000002
20
18.811600645813094
42
-0.41421356237309626
10
102.01250000000002
20
19.3366006458131
10
102.01250000000003
20
32.286600645813095
42
-0.41421356237309254
10
102.53750000000004
20
32.811600645813087
10
115.48750000000001
20
32.811600645813087
42
-0.41421356237309748
10
116.01250000000002
20
32.286600645813081
10
116.01250000000002
20
19.336600645813093
42
-0.41421356237309132
0
LWPOLYLINE
5
116
100
AcDbEntity
8
0
100
AcDbPolyline
90
8
70
1
43
0.0
10
153.58750000000001
20
18.811600645813101
10
140.63750000000002
20
18.811600645813094
42
-0.41421356237309626
10
140.11250000000001
20
19.3366006458131
10
140.11250000000001
20
32.286600645813095
42
-0.41421356237309009
10
140.63750000000002
20
32.811600645813087
10
153.58750000000003
20
32.811600645813087
42
-0.41421356237309748
10
154.11250000000001
20
32.286600645813081
10
154.11250000000001
20
19.336600645813089
42
-0.41421356237309009
0
LWPOLYLINE
5
117
100
AcDbEntity
8
0
100
AcDbPolyline
90
8
70
1
43
0.0
10
179.78125000000003
20
18.811600645813101
10
166.83125000000001
20
18.811600645813112
42
-0.41421356237309626
10
166.30625000000003
20
19.3366006458131
10
166.30625000000003
20
32.286600645813095
42
-0.41421356237309254
10
166.83125000000001
20
32.811600645813087
10
179.78125000000006
20
32.811600645813073
42
-0.41421356237309748
10
180.30625000000003
20
32.286600645813081
10
180.30625000000001
20
19.336600645813093
42
-0.41421356237309254
0
LWPOLYLINE
5
118
100
AcDbEntity
8
0
100
AcDbPolyline
90
8
70
1
43
0.0
10
92.200000000000003
20
51.336600645813093
10
92.200000000000003
20
38.38660064581309
42
-0.41421356237309748
10
91.675000000000011
20
37.861600645813084
10
78.725000000000009
20
37.861600645813084
42
-0.41421356237309503
10
78.200000000000017
20
38.38660064581309
10
78.200000000000017
20
51.3366006458131
42
-0.41421356237309503
10
78.725000000000009
20
51.861600645813098
10
91.675000000000011
20
51.861600645813091
42
-0.41421356237309503
0
LWPOLYLINE
5
119
100
AcDbEntity
8
0
100
AcDbPolyline
90
8
70
1
43
0.0
10
187.45000000000005
20
51.336600645813093
10
187.45000000000005
20
38.386600645813076
42
-0.41421356237309254
10
186.92500000000007
20
37.861600645813084
10
173.97500000000002
20
37.861600645813105
42
-0.41421356237309503
10
173.45000000000002
20
38.38660064581309
10
173.45000000000005
20
51.3366006458131
42
-0.41421356237309503
10
173.97500000000005
20
51.861600645813098
10
186.92500000000007
20
51.861600645813077
42
-0.41421356237309503
0
LWPOLYLINE
5
120
100
AcDbEntity
8
0
100
AcDbPolyline
90
8
70
1
43
0.0
10
73.150000000000006
20
51.336600645813107
10
73.150000000000006
20
38.38660064581309
42
-0.41421356237309748
10
72.625000000000014
20
37.861600645813084
10
59.675000000000011
20
37.861600645813084
42
-0.41421356237309503
10
59.150000000000006
20
38.38660064581309
10
59.150000000000006
20
51.3366006458131
42
-0.41421356237309503
10
59.675000000000011
20
51.861600645813098
10
72.625000000000014
20
51.861600645813112
42
-0.41421356237309503
0
LWPOLYLINE
5
121
100
AcDbEntity
8
0
100
AcDbPolyline
90
8
70
1
43
0.0
10
54.100000000000001
20
51.3366006458131
10
54.100000000000001
20
38.386600645813076
42
-0.41421356237309254
10
53.575000000000003
20
37.861600645813084
10
40.625000000000007
20
37.861600645813084
42
-0.41421356237309503
10
40.100000000000009
20
38.38660064581309
10
40.100000000000009
20
51.3366006458131
42
-0.41421356237309503
10
40.625000000000007
20
51.861600645813098
10
53.575000000000003
20
51.861600645813098
42
-0.41421356237309503
0
LWPOLYLINE
5
122
100
AcDbEntity
8
0
100
AcDbPolyline
90
8
70
1
43
0.0
10
15.475000000000003
20
37.861600645813091
10
2.5249999999999995
20
37.861600645813084
42
-0.41421356237309848
10
1.9999999999999978
20
38.38660064581309
10
1.9999999999999962
20
51.3366006458131
42
-0.41421356237309503
10
2.5249999999999986
20
51.861600645813098
10
15.475000000000003
20
51.861600645813098
42
-0.41421356237309381
10
16
20
51.3366006458131
10
15.999999999999996
20
38.38660064581309
42
-0.41421356237309748
0
LWPOLYLINE
5
123
100
AcDbEntity
8
0
100
AcDbPolyline
90
8
70
1
43
0.0
10
149.34999999999999
20
51.336600645813093
10
149.34999999999999
20
38.38660064581309
42
-0.41421356237309748
10
148.82499999999999
20
37.861600645813084
10
135.875
20
37.861600645813084
42
-0.41421356237309503
10
135.34999999999999
20
38.386600645813083
10
135.35000000000002
20
51.3366006458131
42
-0.41421356237309503
10
135.87500000000003
20
51.861600645813098
10
148.82499999999999
20
51.861600645813091
42
-0.41421356237309503
0
LWPOLYLINE
5
124
100
AcDbEntity
8
0
100
AcDbPolyline
90
8
70
1
43
0.0
10
111.25000000000001
20
51.336600645813093
10
111.25000000000001
20
38.38660064581309
42
-0.41421356237309748
10
110.72500000000002
20
37.861600645813084
10
97.77500000000002
20
37.861600645813077
42
-0.41421356237309503
10
97.250000000000014
20
38.386600645813076
10
97.250000000000028
20
51.3366006458131
42
-0.41421356237309503
10
97.775000000000034
20
51.861600645813098
10
110.72500000000002
20
51.861600645813091
42
-0.41421356237309503
0
LWPOLYLINE
5
125
100
AcDbEntity
8
0
100
AcDbPolyline
90
8
70
1
43
0.0
10
20.762499999999999
20
13.236600645813091
10
20.762499999999999
20
0.28660064581308659
42
-0.41421356237309359
10
20.237499999999997
20
-0.23839935418691091
10
7.2874999999999979
20
-0.23839935418691091
42
-0.41421356237309453
10
6.7624999999999993
20
0.28660064581308914
10
6.7624999999999975
20
13.236600645813093
42
-0.41421356237309381
10
7.2874999999999979
20
13.76160064581309
10
20.237499999999997
20
13.761600645813093
42
-0.41421356237309503
0
LWPOLYLINE
5
126
100
AcDbEntity
8
0
100
AcDbPolyline
90
8
70
1
43
0.0
10
168.40000000000003
20
51.336600645813093
10
168.40000000000003
20
38.386600645813076
42
-0.41421356237309254
10
167.87500000000006
20
37.861600645813084
10
154.92500000000001
20
37.861600645813077
42
-0.41421356237309503
10
154.40000000000001
20
38.386600645813076
10
154.40000000000003
20
51.3366006458131
42
-0.41421356237309503
10
154.92500000000004
20
51.861600645813098
10
167.87500000000006
20
51.861600645813077
42
-0.41421356237309503
0
LWPOLYLINE
5
127
100
AcDbEntity
8
0
100
AcDbPolyline
90
8
70
1
43
0.0
10
35.050000000000004
20
51.3366006458131
10
35.050000000000004
20
38.386600645813076
42
-0.41421356237309254
10
34.524999999999999
20
37.861600645813084
10
21.575000000000003
20
37.861600645813077
42
-0.41421356237309503
10
21.050000000000001
20
38.386600645813076
10
21.050000000000001
20
51.3366006458131
42
-0.41421356237309503
10
21.575000000000003
20
51.861600645813098
10
34.524999999999999
20
51.861600645813098
42
-0.41421356237309503
0
LWPOLYLINE
5
128
100
AcDbEntity
8
0
100
AcDbPolyline
90
8
70
1
43
0.0
10
130.30000000000001
20
51.336600645813093
10
130.29999999999998
20
38.38660064581309
42
-0.41421356237309748
10
129.77499999999998
20
37.861600645813084
10
116.82500000000002
20
37.861600645813084
42
-0.41421356237309503
10
116.30000000000001
20
38.386600645813083
10
116.30000000000001
20
51.3366006458131
42
-0.41421356237309503
10
116.82500000000002
20
51.861600645813098
10
129.77500000000001
20
51.861600645813091
42
-0.41421356237309503
0
LWPOLYLINE
5
129
100
AcDbEntity
8
0
100
AcDbPolyline
90
8
70
1
43
0.0
10
44.050000000000004
20
-0.23839935418691094
10
31.100000000000001
20
-0.23839935418691308
42
-0.41421356237309509
10
30.575000000000003
20
0.28660064581308919
10
30.575000000000003
20
13.236600645813093
42
-0.41421356237309381
10
31.100000000000001
20
13.76160064581309
10
44.050000000000004
20
13.761600645813093
42
-0.41421356237309503
10
44.575000000000003
20
13.236600645813091
10
44.575000000000003
20
0.28660064581308659
42
-0.41421356237309337
0
LWPOLYLINE
5
130
100
AcDbEntity
8
0
100
AcDbPolyline
90
16
70
1
43
0.0
10
11.906250000000007
20
-3.2883993541869012
10
11.906250000000009
20
-20.238399354186907
42
0.4142135623730957
10
12.956250000000013
20
-21.2883993541869
10
176.49374999999998
20
-21.288399354186897
42
0.41421356237309381
10
177.54374999999999
20
-20.238399354186893
10
177.54374999999999
20
-3.2883993541868928
42
-0.4142135623730932
10
178.59375
20
-2.2383993541868903
10
188.40000000000001
20
-2.2383993541868912
42
0.41421356237307833
10
189.44999999999999
20
-1.1883993541868902
10
189.44999999999999
20
52.81160064581313
42
0.41421356237308515
10
188.39999999999998
20
53.861600645813127
10
1.0500000000000043
20
53.861600645813098
42
0.4142135623730957
10
-2.4980018054066022e-15
20
52.811600645813087
10
1.3877787807814457e-16
20
-1.1883993541869131
42
0.41421356237309276
10
1.0500000000000005
20
-2.2383993541869036
10
10.856250000000012
20
-2.2383993541869076
42
-0.41421356237309581
0
LINE
5
131
100
AcDbEntity
8
0
100
AcDbLine
10
101.19999999999997
20
-19.2883993541869
30
9.5756735873919752e-15
11
88.250000000000014
21
-19.288399354186897
31
9.5756735873919736e-15
0
LINE
5
132
100
AcDbEntity
8
0
100
AcDbLine
10
91.638000000000005
20
-5.2883993541868968
30
2.6367796834847468e-15
11
100.19325000000001
21
-5.2883993541868968
31
2.6367796834847468e-15
0
ARC
5
133
100
AcDbEntity
8
0
100
AcDbCircle
10
88.250000000000014
20
-18.763399354186898
30
9.298117831235686e-15
40
0.52499999999999403
210
-2.6427784501819397e-18
220
5.1080030089000637e-16
230
1
100
AcDbArc
50
182.72940263677856
51
270
0
ARC
5
134
100
AcDbEntity
8
0
100
AcDbCircle
10
101.19999999999997
20
-18.763399354186902
30
9.5756735873919752e-15
40
0.52499999999999991
210
2.1025445364576009e-33
220
0
230
1
100
AcDbArc
50
270
51
357.27059736322144
0
LINE
5
135
100
AcDbEntity
8
0
100
AcDbLine
10
33.481250000000017
20
-5.2883993541869092
30
2.6367796834847468e-15
11
40.699999999999996
21
-5.2883993541869065
31
2.6367796834847464e-15
0
LINE
5
136
100
AcDbEntity
8
0
100
AcDbLine
10
32.956250000000011
20
-18.763399354186909
30
9.298117831235686e-15
11
32.956250000000011
21
-5.8133993541869078
31
3.4694469519536142e-15
0
LINE
5
137
100
AcDbEntity
8
0
100
AcDbLine
10
110.68800000000003
20
-5.2883993541868977
30
2.6367796834847468e-15
11
124.06925000000003
21
-5.2883993541868977
31
2.6367796834847468e-15
0
LINE
5
138
100
AcDbEntity
8
0
100
AcDbLine
10
108.63244115182985
20
-18.288399354186893
30
8.7430063189231078e-15
11
102.24880884817013
21
-18.288399354186893
31
8.7430063189231078e-15
0
LINE
5
139
100
AcDbEntity
8
0
100
AcDbLine
10
101.24325000000002
20
-3.2883993541869021
30
1.6653345369377348e-15
11
109.63800000000001
21
-3.2883993541868928
31
1.5265566588595865e-15
0
LINE
5
140
100
AcDbEntity
8
0
100
AcDbLine
10
110.16300000000001
20
-3.8133993541868918
30
2.0816681711721685e-15
11
110.16300000000001
21
-4.7633993541868973
31
2.5500435096859064e-15
0
LINE
5
141
100
AcDbEntity
8
0
100
AcDbLine
10
65.481250000000017
20
-19.288399354186907
30
9.8532293435482643e-15
11
33.481250000000017
21
-19.288399354186907
31
9.298117831235686e-15
0
LINE
5
142
100
AcDbEntity
8
0
100
AcDbLine
10
48.75
20
-5.2883993541869065
30
2.6367796834847468e-15
11
59.711999999999989
21
-5.2883993541869057
31
2.6367796834847464e-15
0
LINE
5
143
100
AcDbEntity
8
0
100
AcDbLine
10
87.201191151829846
20
-18.288399354186893
30
8.7430063189231078e-15
11
83.19880884817016
21
-18.288399354186893
31
8.7430063189231078e-15
0
LINE
5
144
100
AcDbEntity
8
0
100
AcDbLine
10
79.286999999999992
20
-4.763399354186908
30
2.3592239273284576e-15
11
79.286999999999992
21
-3.8133993541869016
31
2.0816681711721685e-15
0
LINE
5
145
100
AcDbEntity
8
0
100
AcDbLine
10
79.811999999999998
20
-3.2883993541869065
30
1.8041124150158794e-15
11
90.588000000000022
21
-3.288399354186891
31
1.8041124150158731e-15
0
LINE
5
146
100
AcDbEntity
8
0
100
AcDbLine
10
148.75000000000003
20
-5.2883993541868977
30
2.6367796834847468e-15
11
155.96875
21
-5.2883993541868985
31
2.6367796834847472e-15
0
LINE
5
147
100
AcDbEntity
8
0
100
AcDbLine
10
156.49374999999998
20
-5.8133993541868803
30
2.7755575615628914e-15
11
156.49374999999998
21
-18.763399354186877
31
8.8817841970012523e-15
0
LINE
5
148
100
AcDbEntity
8
0
100
AcDbLine
10
155.96874999999997
20
-19.288399354186879
30
9.298117831235686e-15
11
109.68125000000001
21
-19.288399354186886
31
9.2981178312356986e-15
0
ARC
5
149
100
AcDbEntity
8
0
100
AcDbCircle
10
33.481250000000017
20
-5.8133993541869078
30
3.0531133177191805e-15
40
0.5249999999999988
210
3.0937013160740484e-33
220
7.9301644616082782e-16
230
1
100
AcDbArc
50
90
51
180
0
ARC
5
150
100
AcDbEntity
8
0
100
AcDbCircle
10
109.63800000000001
20
-3.8133993541868931
30
1.9428902930940239e-15
40
0.52500000000000213
210
-2.6433881538694247e-16
220
4.857225732735051e-16
230
1
100
AcDbArc
50
0
51
90
0
ARC
5
151
100
AcDbEntity
8
0
100
AcDbCircle
10
65.481250000000017
20
-18.763399354186909
30
9.5756735873919752e-15
40
0.52499999999999991
210
3.5879226608762436e-33
220
5.2867763077388416e-16
230
1
100
AcDbArc
50
270
51
357.27059736322224
0
ARC
5
152
100
AcDbEntity
8
0
100
AcDbCircle
10
79.811999999999998
20
-3.8133993541869056
30
2.0816681711721685e-15
40
0.5249999999999988
210
2.3231968441301765e-34
220
5.2867763077388525e-16
230
1
100
AcDbArc
50
90
51
180
0
ARC
5
153
100
AcDbEntity
8
0
100
AcDbCircle
10
155.96875
20
-5.8133993541868811
30
2.9143354396410359e-15
40
0.52500000000000213
210
2.6433881538693991e-16
220
4.9960036108132113e-16
230
1
100
AcDbArc
50
0
51
90
0
ARC
5
154
100
AcDbEntity
8
0
100
AcDbCircle
10
155.96874999999997
20
-18.763399354186877
30
9.5756735873919752e-15
40
0.52500000000000213
210
2.4520639291964692e-33
220
-5.2867763077388189e-16
230
1
100
AcDbArc
50
-90
51
0
0
LINE
5
155
100
AcDbEntity
8
0
100
AcDbLine
10
67.762
20
-5.2883993541869065
30
2.6367796834847468e-15
11
78.761999999999986
21
-5.2883993541869065
31
2.6367796834847468e-15
0
LINE
5
156
100
AcDbEntity
8
0
100
AcDbLine
10
91.113000000000014
20
-3.8133993541868927
30
1.8041124150158794e-15
11
91.113000000000014
21
-4.7633993541868964
31
2.2724877535296173e-15
0
LINE
5
157
100
AcDbEntity
8
0
100
AcDbLine
10
100.71825000000001
20
-4.7633993541868982
30
2.4980018054066022e-15
11
100.71825000000001
21
-3.8133993541869016
31
2.0469737016526324e-15
0
LINE
5
158
100
AcDbEntity
8
0
100
AcDbLine
10
124.59425000000003
20
-4.7633993541868991
30
2.6367796834847468e-15
11
124.59425000000003
21
-3.813399354186898
31
2.1857515797307769e-15
0
LINE
5
159
100
AcDbEntity
8
0
100
AcDbLine
10
125.11925000000005
20
-3.2883993541868999
30
1.6653345369377348e-15
11
131.06925000000001
21
-3.2883993541868923
31
1.6653345369377311e-15
0
LINE
5
160
100
AcDbEntity
8
0
100
AcDbLine
10
131.59425000000002
20
-3.8133993541868922
30
2.0816681711721685e-15
11
131.59425000000002
21
-4.7633993541868893
31
2.5326962749261384e-15
0
LINE
5
161
100
AcDbEntity
8
0
100
AcDbLine
10
141.22499999999999
20
-4.763399354186884
30
2.2204460492503131e-15
11
141.22499999999999
21
-3.8133993541868749
31
1.7520707107365752e-15
0
LINE
5
162
100
AcDbEntity
8
0
100
AcDbLine
10
141.75
20
-3.2883993541868755
30
1.8041124150158794e-15
11
147.70000000000002
21
-3.2883993541868723
31
1.8041124150158778e-15
0
LINE
5
163
100
AcDbEntity
8
0
100
AcDbLine
10
148.22500000000002
20
-3.8133993541868731
30
2.0816681711721685e-15
11
148.22500000000002
21
-4.7633993541868964
31
2.5500435096859064e-15
0
LINE
5
164
100
AcDbEntity
8
0
100
AcDbLine
10
82.150000000000006
20
-19.288399354186907
30
9.5756735873919752e-15
11
69.19880884817016
21
-19.288399354186907
31
9.5756735873919752e-15
0
LINE
5
165
100
AcDbEntity
8
0
100
AcDbLine
10
68.150000000000006
20
-18.288399354186893
30
8.7430063189231078e-15
11
66.530058848170171
21
-18.288399354186893
31
8.7430063189231078e-15
0
LINE
5
166
100
AcDbEntity
8
0
100
AcDbLine
10
41.224999999999994
20
-4.7633993541869062
30
2.3592239273284576e-15
11
41.224999999999994
21
-3.813399354186898
31
1.8908485888147197e-15
0
LINE
5
167
100
AcDbEntity
8
0
100
AcDbLine
10
41.75
20
-3.2883993541868972
30
1.8041124150158794e-15
11
47.699999999999996
21
-3.2883993541868972
31
1.8041124150158794e-15
0
LINE
5
168
100
AcDbEntity
8
0
100
AcDbLine
10
48.224999999999994
20
-3.8133993541868967
30
2.0816681711721685e-15
11
48.224999999999994
21
-4.7633993541869071
31
2.5326962749261384e-15
0
LINE
5
169
100
AcDbEntity
8
0
100
AcDbLine
10
60.236999999999988
20
-4.7633993541869071
30
2.6367796834847468e-15
11
60.236999999999988
21
-3.8133993541868971
31
2.1857515797307769e-15
0
LINE
5
170
100
AcDbEntity
8
0
100
AcDbLine
10
60.761999999999993
20
-3.2883993541868972
30
1.6653345369377348e-15
11
66.711999999999989
21
-3.2883993541868972
31
1.6653345369377348e-15
0
LINE
5
171
100
AcDbEntity
8
0
100
AcDbLine
10
67.236999999999995
20
-3.8133993541868967
30
2.0816681711721685e-15
11
67.236999999999995
21
-4.7633993541869071
31
2.5326962749261384e-15
0
ARC
5
172
100
AcDbEntity
8
0
100
AcDbCircle
10
148.75000000000003
20
-4.763399354186884
30
2.4980018054065943e-15
40
0.5250000000000199
210
9.9127055770103058e-17
220
4.7184478546569567e-16
230
1
100
AcDbArc
50
180
51
270
0
ARC
5
173
100
AcDbEntity
8
0
100
AcDbCircle
10
109.68125000000001
20
-18.763399354186884
30
9.298117831235686e-15
40
0.52499999999999436
210
1.1289313967434379e-18
220
4.8632803717943968e-16
230
1
100
AcDbArc
50
182.72940263677927
51
270
0
ARC
5
174
100
AcDbEntity
8
0
100
AcDbCircle
10
108.63244115182982
20
-18.813399354186899
30
9.8532293435482643e-15
40
0.52500000000002989
210
1.0087937805686946e-15
220
5.3381492977531337e-16
230
1
100
AcDbArc
50
2.7294026367795166
51
89.999999999996888
0
ARC
5
175
100
AcDbEntity
8
0
100
AcDbCircle
10
102.24880884817014
20
-18.813399354186902
30
9.8532293435482659e-15
40
0.52500000000000879
210
6.0382415627395242e-19
220
2.1147105230955047e-15
230
1
100
AcDbArc
50
90.000000000001563
51
177.2705973632213
0
ARC
5
176
100
AcDbEntity
8
0
100
AcDbCircle
10
87.201191151829875
20
-18.813399354186881
30
9.8532293435482548e-15
40
0.52499999999999325
210
1.0113929138983878e-15
220
5.339388385949816e-16
230
1
100
AcDbArc
50
2.7294026367769781
51
90.000000000003098
0
ARC
5
177
100
AcDbEntity
8
0
100
AcDbCircle
10
83.198808848170174
20
-18.813399354186902
30
9.5756735873919752e-15
40
0.52500000000001101
210
6.0382415629330186e-19
220
1.586032892321619e-15
230
1
100
AcDbArc
50
90.000000000001563
51
177.27059736322116
0
ARC
5
178
100
AcDbEntity
8
0
100
AcDbCircle
10
82.150000000000006
20
-18.763399354186909
30
9.5756735873919752e-15
40
0.52499999999999769
210
2.1025445364576009e-33
220
0
230
1
100
AcDbArc
50
270
51
357.27059736322224
0
ARC
5
179
100
AcDbEntity
8
0
100
AcDbCircle
10
69.19880884817016
20
-18.763399354186909
30
9.298117831235686e-15
40
0.5250000000000028
210
-3.9829341825527287e-19
220
5.0014877866416747e-16
230
1
100
AcDbArc
50
182.72940263677808
51
270
0
ARC
5
180
100
AcDbEntity
8
0
100
AcDbCircle
10
68.150000000000006
20
-18.81339935418691
30
9.2981178312356923e-15
40
0.52500000000000313
210
-4.58355099873918e-17
220
4.696596632640949e-16
230
1
100
AcDbArc
50
2.7294026367792492
51
90
0
ARC
5
181
100
AcDbEntity
8
0
100
AcDbCircle
10
66.530058848170171
20
-18.81339935418691
30
9.5756735873919815e-15
40
0.52500000000001545
210
6.0382415630553729e-19
220
1.5860328923216168e-15
230
1
100
AcDbArc
50
90
51
177.27059736322036
0
ARC
5
182
100
AcDbEntity
8
0
100
AcDbCircle
10
33.481250000000017
20
-18.763399354186909
30
9.5756735873919752e-15
40
0.52500000000000213
210
-5.2867763077387982e-16
220
4.8572257327350845e-16
230
1
100
AcDbArc
50
180
51
270
0
ARC
5
183
100
AcDbEntity
8
0
100
AcDbCircle
10
40.699999999999989
20
-4.7633993541868982
30
2.6367796834847432e-15
40
0.52500000000000879
210
8.9764204743246593e-30
220
5.6347207515787135e-30
230
1
100
AcDbArc
50
270.00000000000074
51
360
0
ARC
5
184
100
AcDbEntity
8
0
100
AcDbCircle
10
41.75
20
-3.8133993541868971
30
1.8041124150158794e-15
40
0.52499999999999991
210
3.0376569624798795e-33
220
-0
230
1
100
AcDbArc
50
90
51
180
0
ARC
5
185
100
AcDbEntity
8
0
100
AcDbCircle
10
47.699999999999996
20
-3.8133993541868967
30
2.0816681711721685e-15
40
0.52500000000000213
210
-0
220
4.8572257327350599e-16
230
1
100
AcDbArc
50
0
51
90
0
ARC
5
186
100
AcDbEntity
8
0
100
AcDbCircle
10
48.750000000000007
20
-4.7633993541868991
30
2.6367796834847428e-15
40
0.52500000000001101
210
-1.9825411154020165e-16
220
4.579669976578754e-16
230
1
100
AcDbArc
50
180
51
269.9999999999992
0
ARC
5
187
100
AcDbEntity
8
0
100
AcDbCircle
10
59.711999999999975
20
-4.7633993541869009
30
2.6367796834847436e-15
40
0.52500000000000491
210
9.398153462253986e-30
220
4.6956006263156615e-30
230
1
100
AcDbArc
50
270.00000000000153
51
360
0
ARC
5
188
100
AcDbEntity
8
0
100
AcDbCircle
10
60.761999999999993
20
-3.8133993541868971
30
1.8041124150158794e-15
40
0.52499999999999991
210
3.0376569624798795e-33
220
2.6433881538694208e-16
230
1
100
AcDbArc
50
90
51
180
0
ARC
5
189
100
AcDbEntity
8
0
100
AcDbCircle
10
66.711999999999989
20
-3.8133993541868967
30
2.0816681711721685e-15
40
0.52500000000000213
210
-0
220
4.8572257327350599e-16
230
1
100
AcDbArc
50
0
51
90
0
ARC
5
190
100
AcDbEntity
8
0
100
AcDbCircle
10
67.762
20
-4.7633993541868991
30
2.6367796834847428e-15
40
0.52500000000001101
210
-1.9825411154020165e-16
220
4.579669976578754e-16
230
1
100
AcDbArc
50
180
51
270
0
ARC
5
191
100
AcDbEntity
8
0
100
AcDbCircle
10
78.761999999999986
20
-4.7633993541868982
30
2.6367796834847413e-15
40
0.52500000000000824
210
5.6447298696833732e-30
220
1.0330321377894136e-29
230
1
100
AcDbArc
50
270
51
360
0
ARC
5
192
100
AcDbEntity
8
0
100
AcDbCircle
10
90.588000000000022
20
-3.8133993541868918
30
2.0816681711721685e-15
40
0.52500000000000213
210
5.2867763077388288e-16
220
4.857225732735049e-16
230
1
100
AcDbArc
50
0
51
90
0
ARC
5
193
100
AcDbEntity
8
0
100
AcDbCircle
10
91.638000000000019
20
-4.763399354186884
30
2.3592239273284517e-15
40
0.52500000000000213
210
-1.6521175961683779e-16
220
4.718447854656863e-16
230
1
100
AcDbArc
50
180
51
269.99999999999847
0
ARC
5
194
100
AcDbEntity
8
0
100
AcDbCircle
10
100.19324999999998
20
-4.7633993541868849
30
2.6367796834847413e-15
40
0.52500000000001157
210
1.7741974454684381e-29
220
1.0330321377894575e-29
230
1
100
AcDbArc
50
270.00000000000313
51
360
0
ARC
5
195
100
AcDbEntity
8
0
100
AcDbCircle
10
101.24325000000002
20
-3.813399354186902
30
1.8041124150158794e-15
40
0.52499999999999991
210
-1.7859997322100016e-33
220
2.6433881538694208e-16
230
1
100
AcDbArc
50
90
51
180
0
ARC
5
196
100
AcDbEntity
8
0
100
AcDbCircle
10
110.68800000000003
20
-4.7633993541868946
30
2.636779683484746e-15
40
0.5250000000000199
210
-1.6521175961683313e-16
220
4.7184478546568926e-16
230
1
100
AcDbArc
50
180
51
270
0
ARC
5
197
100
AcDbEntity
8
0
100
AcDbCircle
10
124.06925000000001
20
-4.7633993541868849
30
2.6367796834847405e-15
40
0.52500000000001268
210
1.6566775864391724e-29
220
1.2208561628420687e-29
230
1
100
AcDbArc
50
270.00000000000153
51
360
0
ARC
5
198
100
AcDbEntity
8
0
100
AcDbCircle
10
125.11925000000005
20
-3.8133993541868998
30
1.8041124150158794e-15
40
0.52499999999999991
210
2.1025445364576009e-33
220
2.6433881538694208e-16
230
1
100
AcDbArc
50
90
51
180
0
ARC
5
199
100
AcDbEntity
8
0
100
AcDbCircle
10
131.06925000000001
20
-3.8133993541868922
30
2.0816681711721685e-15
40
0.52500000000000213
210
-0
220
4.7184478546569163e-16
230
1
100
AcDbArc
50
0
51
90
0
ARC
5
200
100
AcDbEntity
8
0
100
AcDbCircle
10
132.11925000000002
20
-4.7633993541868849
30
2.3592239273284569e-15
40
0.52500000000000213
210
3.3042351923367405e-16
220
4.718447854656939e-16
230
1
100
AcDbArc
50
180
51
270
0
LINE
5
201
100
AcDbEntity
8
0
100
AcDbLine
10
132.11925000000002
20
-5.288399354186887
30
2.6069424396979452e-15
11
140.69999999999999
21
-5.2883993541868834
31
2.4980018054066002e-15
0
ARC
5
202
100
AcDbEntity
8
0
100
AcDbCircle
10
140.69999999999999
20
-4.7633993541868822
30
2.3592239273284561e-15
40
0.52500000000000158
210
-4.2173298792926814e-31
220
2.6433881538694031e-16
230
1
100
AcDbArc
50
270
51
360
0
ARC
5
203
100
AcDbEntity
8
0
100
AcDbCircle
10
141.75
20
-3.8133993541868754
30
1.9428902930940239e-15
40
0.52499999999999991
210
-1.7859997322100016e-33
220
2.6433881538694208e-16
230
1
100
AcDbArc
50
90
51
180
0
ARC
5
204
100
AcDbEntity
8
0
100
AcDbCircle
10
147.70000000000002
20
-3.8133993541868731
30
2.0816681711721685e-15
40
0.52500000000000213
210
-0
220
4.8572257327350599e-16
230
1
100
AcDbArc
50
0
51
90
0
ENDSEC
0
SECTION
2
OBJECTS
0
DICTIONARY
5
C
100
AcDbDictionary
3
ACAD_GROUP
350
D
3
ACAD_MLINESTYLE
350
17
0
DICTIONARY
5
D
100
AcDbDictionary
0
DICTIONARY
5
1A
330
C
100
AcDbDictionary
0
DICTIONARY
5
17
100
AcDbDictionary
0
ENDSEC
0
EOF
